<mxfile host="app.diagrams.net" modified="2023-02-01T02:13:25.413Z" agent="5.0 (Windows NT 10.0; Win64; x64) AppleWebKit/537.36 (KHTML, like Gecko) Chrome/109.0.0.0 Safari/537.36" etag="5YGukxtj6RWsbZNa_-um" version="20.0.4" type="github">
  <diagram id="vAebxS3UM6LQ19YHtOK3" name="Page-1">
    <mxGraphModel dx="868" dy="425" grid="1" gridSize="10" guides="1" tooltips="1" connect="1" arrows="1" fold="1" page="1" pageScale="1" pageWidth="827" pageHeight="1169" math="0" shadow="0">
      <root>
        <mxCell id="0" />
        <mxCell id="1" parent="0" />
        <mxCell id="7UsnzDe4b1MfK3M5bKmA-1" value="APARATO" style="rounded=0;whiteSpace=wrap;html=1;" vertex="1" parent="1">
          <mxGeometry x="350" y="190" width="120" height="60" as="geometry" />
        </mxCell>
        <mxCell id="7UsnzDe4b1MfK3M5bKmA-3" value="COMERCIO VENDEDOR" style="ellipse;whiteSpace=wrap;html=1;" vertex="1" parent="1">
          <mxGeometry x="700" y="40" width="120" height="80" as="geometry" />
        </mxCell>
        <mxCell id="7UsnzDe4b1MfK3M5bKmA-4" value="&lt;u&gt;SERIE&lt;/u&gt;" style="ellipse;whiteSpace=wrap;html=1;" vertex="1" parent="1">
          <mxGeometry y="40" width="120" height="80" as="geometry" />
        </mxCell>
        <mxCell id="7UsnzDe4b1MfK3M5bKmA-5" value="MODELO" style="ellipse;whiteSpace=wrap;html=1;" vertex="1" parent="1">
          <mxGeometry x="140" y="40" width="120" height="80" as="geometry" />
        </mxCell>
        <mxCell id="7UsnzDe4b1MfK3M5bKmA-6" value="MARCA" style="ellipse;whiteSpace=wrap;html=1;" vertex="1" parent="1">
          <mxGeometry x="280" y="40" width="120" height="80" as="geometry" />
        </mxCell>
        <mxCell id="7UsnzDe4b1MfK3M5bKmA-7" value="FECHA COMPRA" style="ellipse;whiteSpace=wrap;html=1;" vertex="1" parent="1">
          <mxGeometry x="560" y="40" width="120" height="80" as="geometry" />
        </mxCell>
        <mxCell id="7UsnzDe4b1MfK3M5bKmA-8" value="" style="ellipse;whiteSpace=wrap;html=1;" vertex="1" parent="1">
          <mxGeometry x="420" y="40" width="120" height="80" as="geometry" />
        </mxCell>
        <mxCell id="7UsnzDe4b1MfK3M5bKmA-9" value="TIPO" style="ellipse;whiteSpace=wrap;html=1;" vertex="1" parent="1">
          <mxGeometry x="430" y="50" width="100" height="60" as="geometry" />
        </mxCell>
        <mxCell id="7UsnzDe4b1MfK3M5bKmA-10" value="" style="endArrow=none;html=1;rounded=0;entryX=0.5;entryY=0;entryDx=0;entryDy=0;exitX=0.5;exitY=1;exitDx=0;exitDy=0;" edge="1" parent="1" source="7UsnzDe4b1MfK3M5bKmA-6" target="7UsnzDe4b1MfK3M5bKmA-1">
          <mxGeometry width="50" height="50" relative="1" as="geometry">
            <mxPoint x="390" y="70" as="sourcePoint" />
            <mxPoint x="440" y="20" as="targetPoint" />
          </mxGeometry>
        </mxCell>
        <mxCell id="7UsnzDe4b1MfK3M5bKmA-11" value="" style="endArrow=none;html=1;rounded=0;" edge="1" parent="1" source="7UsnzDe4b1MfK3M5bKmA-5" target="7UsnzDe4b1MfK3M5bKmA-1">
          <mxGeometry width="50" height="50" relative="1" as="geometry">
            <mxPoint x="373.4329908113673" y="126.82327127500571" as="sourcePoint" />
            <mxPoint x="420" y="200" as="targetPoint" />
          </mxGeometry>
        </mxCell>
        <mxCell id="7UsnzDe4b1MfK3M5bKmA-13" value="" style="endArrow=none;html=1;rounded=0;" edge="1" parent="1" source="7UsnzDe4b1MfK3M5bKmA-3" target="7UsnzDe4b1MfK3M5bKmA-1">
          <mxGeometry width="50" height="50" relative="1" as="geometry">
            <mxPoint x="252.42640687119297" y="118.2842712474619" as="sourcePoint" />
            <mxPoint x="375" y="200" as="targetPoint" />
          </mxGeometry>
        </mxCell>
        <mxCell id="7UsnzDe4b1MfK3M5bKmA-14" value="" style="endArrow=none;html=1;rounded=0;" edge="1" parent="1" source="7UsnzDe4b1MfK3M5bKmA-7" target="7UsnzDe4b1MfK3M5bKmA-1">
          <mxGeometry width="50" height="50" relative="1" as="geometry">
            <mxPoint x="262.42640687119297" y="128.2842712474619" as="sourcePoint" />
            <mxPoint x="385" y="210" as="targetPoint" />
          </mxGeometry>
        </mxCell>
        <mxCell id="7UsnzDe4b1MfK3M5bKmA-16" value="" style="endArrow=none;html=1;rounded=0;" edge="1" parent="1" source="7UsnzDe4b1MfK3M5bKmA-4" target="7UsnzDe4b1MfK3M5bKmA-1">
          <mxGeometry width="50" height="50" relative="1" as="geometry">
            <mxPoint x="282.42640687119297" y="148.2842712474619" as="sourcePoint" />
            <mxPoint x="405" y="230" as="targetPoint" />
          </mxGeometry>
        </mxCell>
        <mxCell id="7UsnzDe4b1MfK3M5bKmA-17" value="" style="endArrow=none;html=1;rounded=0;exitX=0.5;exitY=1;exitDx=0;exitDy=0;entryX=0.5;entryY=0;entryDx=0;entryDy=0;" edge="1" parent="1" source="7UsnzDe4b1MfK3M5bKmA-8" target="7UsnzDe4b1MfK3M5bKmA-1">
          <mxGeometry width="50" height="50" relative="1" as="geometry">
            <mxPoint x="587.5735931288073" y="118.2842712474619" as="sourcePoint" />
            <mxPoint x="465" y="200" as="targetPoint" />
          </mxGeometry>
        </mxCell>
        <mxCell id="7UsnzDe4b1MfK3M5bKmA-18" value="PROFESOR" style="rounded=0;whiteSpace=wrap;html=1;" vertex="1" parent="1">
          <mxGeometry x="350" y="510" width="120" height="60" as="geometry" />
        </mxCell>
        <mxCell id="7UsnzDe4b1MfK3M5bKmA-19" value="&lt;u&gt;CÓDIGO&lt;/u&gt;" style="ellipse;whiteSpace=wrap;html=1;" vertex="1" parent="1">
          <mxGeometry x="350" y="360" width="120" height="80" as="geometry" />
        </mxCell>
        <mxCell id="7UsnzDe4b1MfK3M5bKmA-21" value="" style="ellipse;whiteSpace=wrap;html=1;" vertex="1" parent="1">
          <mxGeometry x="190" y="360" width="120" height="80" as="geometry" />
        </mxCell>
        <mxCell id="7UsnzDe4b1MfK3M5bKmA-22" value="ESPECIALIZACIÓN" style="ellipse;whiteSpace=wrap;html=1;" vertex="1" parent="1">
          <mxGeometry x="195" y="365" width="110" height="70" as="geometry" />
        </mxCell>
        <mxCell id="7UsnzDe4b1MfK3M5bKmA-23" value="" style="ellipse;whiteSpace=wrap;html=1;" vertex="1" parent="1">
          <mxGeometry x="520" y="360" width="120" height="80" as="geometry" />
        </mxCell>
        <mxCell id="7UsnzDe4b1MfK3M5bKmA-24" value="CURSOS" style="ellipse;whiteSpace=wrap;html=1;" vertex="1" parent="1">
          <mxGeometry x="525" y="365" width="110" height="70" as="geometry" />
        </mxCell>
        <mxCell id="7UsnzDe4b1MfK3M5bKmA-25" value="" style="ellipse;whiteSpace=wrap;html=1;" vertex="1" parent="1">
          <mxGeometry x="30" y="360" width="120" height="80" as="geometry" />
        </mxCell>
        <mxCell id="7UsnzDe4b1MfK3M5bKmA-26" value="PUBLICACIONES" style="ellipse;whiteSpace=wrap;html=1;" vertex="1" parent="1">
          <mxGeometry x="35" y="365" width="110" height="70" as="geometry" />
        </mxCell>
        <mxCell id="7UsnzDe4b1MfK3M5bKmA-27" value="" style="endArrow=none;html=1;rounded=0;entryX=0.75;entryY=1;entryDx=0;entryDy=0;entryPerimeter=0;" edge="1" parent="1" source="7UsnzDe4b1MfK3M5bKmA-18" target="7UsnzDe4b1MfK3M5bKmA-25">
          <mxGeometry width="50" height="50" relative="1" as="geometry">
            <mxPoint x="390" y="390" as="sourcePoint" />
            <mxPoint x="440" y="340" as="targetPoint" />
          </mxGeometry>
        </mxCell>
        <mxCell id="7UsnzDe4b1MfK3M5bKmA-28" value="" style="endArrow=none;html=1;rounded=0;entryX=0.8;entryY=0.95;entryDx=0;entryDy=0;entryPerimeter=0;" edge="1" parent="1" source="7UsnzDe4b1MfK3M5bKmA-18" target="7UsnzDe4b1MfK3M5bKmA-21">
          <mxGeometry width="50" height="50" relative="1" as="geometry">
            <mxPoint x="400" y="400" as="sourcePoint" />
            <mxPoint x="450" y="350" as="targetPoint" />
          </mxGeometry>
        </mxCell>
        <mxCell id="7UsnzDe4b1MfK3M5bKmA-29" value="" style="endArrow=none;html=1;rounded=0;" edge="1" parent="1" source="7UsnzDe4b1MfK3M5bKmA-18" target="7UsnzDe4b1MfK3M5bKmA-19">
          <mxGeometry width="50" height="50" relative="1" as="geometry">
            <mxPoint x="410" y="410" as="sourcePoint" />
            <mxPoint x="450" y="400" as="targetPoint" />
          </mxGeometry>
        </mxCell>
        <mxCell id="7UsnzDe4b1MfK3M5bKmA-30" value="" style="endArrow=none;html=1;rounded=0;entryX=0.233;entryY=0.963;entryDx=0;entryDy=0;entryPerimeter=0;" edge="1" parent="1" source="7UsnzDe4b1MfK3M5bKmA-18" target="7UsnzDe4b1MfK3M5bKmA-23">
          <mxGeometry width="50" height="50" relative="1" as="geometry">
            <mxPoint x="420" y="420" as="sourcePoint" />
            <mxPoint x="470" y="370" as="targetPoint" />
          </mxGeometry>
        </mxCell>
      </root>
    </mxGraphModel>
  </diagram>
</mxfile>
